<svg width="35" height="35" viewBox="0 0 35 35" fill="none" xmlns="http://www.w3.org/2000/svg">
<g clip-path="url('#clip0_4_331')">
<path opacity="0.964" fill-rule="evenodd" clip-rule="evenodd" d="M15.8936 -0.0341797C16.9417 -0.0341797 17.9899 -0.0341797 19.0381 -0.0341797C25.8584 0.850978 30.7233 4.40567 33.6328 10.6299C34.3257 12.3306 34.77 14.0852 34.9658 15.8936C34.9658 16.9417 34.9658 17.9899 34.9658 19.0381C34.0806 25.8584 30.5259 30.7233 24.3018 33.6328C22.6011 34.3257 20.8465 34.77 19.0381 34.9658C17.9899 34.9658 16.9417 34.9658 15.8936 34.9658C9.07313 34.0805 4.20824 30.5258 1.29883 24.3018C0.605932 22.601 0.161596 20.8465 -0.0341797 19.0381C-0.0341797 17.9899 -0.0341797 16.9417 -0.0341797 15.8936C0.850978 9.07327 4.40567 4.20835 10.6299 1.29883C12.3306 0.605932 14.0852 0.161596 15.8936 -0.0341797ZM17.3975 2.15332C23.9659 2.45619 28.6714 5.55515 31.5137 11.4502C33.4549 16.3843 33.0675 21.1239 30.3516 25.6689C27.2744 30.1992 22.9791 32.569 17.4658 32.7783C11.9526 32.569 7.65728 30.1992 4.58008 25.6689C1.98832 21.3861 1.50981 16.8744 3.14453 12.1338C4.74554 8.1174 7.51406 5.21212 11.4502 3.41797C13.3628 2.62312 15.3452 2.20157 17.3975 2.15332Z" fill="black"></path>
<path opacity="0.962" fill-rule="evenodd" clip-rule="evenodd" d="M20.3369 7.62241C21.6547 7.56157 22.0991 8.15398 21.6699 9.39976C18.9802 12.0781 16.3027 14.7669 13.6377 17.4662C16.3027 20.1654 18.9802 22.8542 21.6699 25.5326C21.8977 25.9883 21.8977 26.444 21.6699 26.8998C21.1951 27.3488 20.6597 27.4286 20.0635 27.139C17.0671 24.1426 14.0706 21.1462 11.0742 18.1498C10.8464 17.694 10.8464 17.2383 11.0742 16.7826C14.1337 13.6888 17.2213 10.6354 20.3369 7.62241Z" fill="black"></path>
</g>
<defs>
<clipPath id="clip0_4_331">
<rect width="35" height="35" fill="white"></rect>
</clipPath>
</defs>
</svg>
