<svg width="151" height="150" viewBox="0 0 151 150" fill="none" xmlns="http://www.w3.org/2000/svg">
<g clip-path="url('#clip0_4_3013')">
<path opacity="0.982" fill-rule="evenodd" clip-rule="evenodd" d="M150.353 40.2834C150.353 41.5529 150.353 42.8226 150.353 44.092C149.044 55.1539 143.576 63.5035 133.947 69.1409C123.817 74.3495 113.368 75.082 102.599 71.3381C97.8142 73.7065 92.9802 75.9524 88.097 78.0764C87.0016 77.9577 86.6108 77.3718 86.9252 76.3186C88.5966 72.5369 90.3054 68.7773 92.0521 65.0393C81.6497 55.3136 78.8665 43.7413 83.7025 30.3225C88.9141 19.8746 97.2637 13.4781 108.751 11.133C122.169 8.86748 133.546 12.6272 142.882 22.4123C147.155 27.6364 149.645 33.5935 150.353 40.2834ZM115.49 21.2405C124.37 21.2753 127.836 25.5722 125.89 34.1311C124.164 37.0285 122.211 39.7628 120.031 42.3342C118.337 44.9264 117.702 47.7585 118.126 50.8303C116.661 50.8303 115.197 50.8303 113.732 50.8303C112.987 47.4864 113.524 44.3613 115.343 41.4553C117.214 39.0957 118.972 36.6541 120.617 34.1311C122.561 27.4791 120.07 24.5982 113.146 25.4885C111.898 25.7255 110.726 26.1649 109.63 26.8069C107.631 24.4562 108.119 22.9425 111.095 22.2659C112.588 21.8675 114.053 21.5257 115.49 21.2405ZM114.904 55.8108C117.482 55.5067 119.044 56.6296 119.591 59.1799C118.619 63.0134 116.52 63.8434 113.292 61.6701C111.942 59.1524 112.48 57.1992 114.904 55.8108Z" fill="#779243"></path>
<path opacity="0.904" fill-rule="evenodd" clip-rule="evenodd" d="M49.2794 23.8767C50.9469 23.5135 52.0702 24.0994 52.6485 25.6345C52.8439 28.0759 52.8439 30.5174 52.6485 32.9588C51.7784 34.6776 50.46 35.1171 48.6934 34.2771C48.3416 34.0126 48.0972 33.671 47.961 33.2517C47.7656 30.615 47.7656 27.9783 47.961 25.3416C48.2613 24.7008 48.7008 24.2126 49.2794 23.8767Z" fill="#779243"></path>
<path opacity="0.904" fill-rule="evenodd" clip-rule="evenodd" d="M30.2369 28.5645C31.3156 28.591 32.2435 28.9816 33.0201 29.7363C34.0203 31.6397 35.0946 33.4951 36.2428 35.3027C36.5463 38.4176 35.2279 39.443 32.2877 38.3789C30.8595 36.3533 29.5411 34.2536 28.3326 32.0801C28.0074 30.3598 28.6422 29.1878 30.2369 28.5645Z" fill="#779243"></path>
<path opacity="0.905" fill-rule="evenodd" clip-rule="evenodd" d="M69.2008 28.5645C71.8109 28.806 72.7384 30.1731 71.984 32.666C70.8731 34.645 69.6523 36.5493 68.3219 38.3789C65.3817 39.443 64.0633 38.4176 64.3668 35.3027C65.4411 33.4474 66.5152 31.5917 67.5895 29.7363C68.0289 29.1596 68.5659 28.7689 69.2008 28.5645Z" fill="#779243"></path>
<path opacity="0.9" fill-rule="evenodd" clip-rule="evenodd" d="M15.8811 42.9199C19.0249 43.6646 21.8081 45.1295 24.2307 47.3145C24.8224 50.1401 23.6994 51.3609 20.8615 50.9766C19.0061 49.9022 17.1506 48.8282 15.2951 47.7539C13.6779 45.927 13.8732 44.3156 15.8811 42.9199Z" fill="#779243"></path>
<path opacity="0.986" fill-rule="evenodd" clip-rule="evenodd" d="M46.0573 44.3847C64.5735 43.2243 72.9231 51.9158 71.1062 70.459C70.3052 80.6883 66.448 89.526 59.5339 96.9726C53.9115 101.898 48.0522 102.191 41.9558 97.8515C34.9752 91.0681 30.8247 82.8164 29.5046 73.0957C28.7849 67.9781 28.9803 62.9001 30.0905 57.8613C32.5606 49.9649 37.8826 45.4725 46.0573 44.3847Z" fill="#779243"></path>
<path opacity="0.906" fill-rule="evenodd" clip-rule="evenodd" d="M10.6076 62.549C13.2461 62.5004 15.8828 62.549 18.5177 62.6955C20.022 63.7206 20.315 65.0389 19.3967 66.6506C19.0553 66.9681 18.6647 67.2122 18.2248 67.383C15.6857 67.5784 13.1467 67.5784 10.6076 67.383C9.07317 66.4238 8.73136 65.1054 9.5822 63.4279C9.91768 63.0951 10.2595 62.8021 10.6076 62.549Z" fill="#779243"></path>
<path opacity="0.908" fill-rule="evenodd" clip-rule="evenodd" d="M20.8618 78.9553C23.9741 78.7932 24.9995 80.1605 23.9379 83.0568C22.0581 84.4613 20.0561 85.6821 17.9321 86.7189C14.8922 87.2231 13.7692 86.0023 14.5629 83.0568C16.5566 81.5003 18.6562 80.133 20.8618 78.9553Z" fill="#779243"></path>
<path opacity="0.929" fill-rule="evenodd" clip-rule="evenodd" d="M61.291 101.221C63.2747 102.164 65.2276 103.189 67.1504 104.297C61.8263 108.132 56.0645 111.208 49.8652 113.525C44.041 111.298 38.6697 108.32 33.752 104.59C35.5871 103.6 37.3938 102.574 39.1719 101.514C44.6044 105.598 50.5124 106.428 56.8965 104.004C58.4794 103.215 59.9442 102.288 61.291 101.221Z" fill="#779243"></path>
<path opacity="0.98" fill-rule="evenodd" clip-rule="evenodd" d="M0.353516 139.307C0.353516 138.428 0.353516 137.549 0.353516 136.67C1.28601 130.114 3.58095 124.06 7.23828 118.506C9.1845 116.094 11.5771 114.287 14.416 113.086C19.5121 111.485 24.4438 109.483 29.2109 107.08C35.4547 111.864 42.2908 115.673 49.7188 118.506C57.6386 115.767 64.9628 111.959 71.6914 107.08C77.3829 109.853 83.1934 112.343 89.123 114.551C93.7692 118.125 96.8454 122.764 98.3516 128.467C99.4587 131.999 100.093 135.613 100.256 139.307C66.955 139.307 33.6544 139.307 0.353516 139.307Z" fill="#779243"></path>
</g>
<defs>
<clipPath id="clip0_4_3013">
<rect width="150" height="150" fill="white" transform="translate(0.5)"></rect>
</clipPath>
</defs>
</svg>
