<svg width="79" height="79" viewBox="0 0 79 79" fill="none" xmlns="http://www.w3.org/2000/svg">
<path opacity="0.873" fill-rule="evenodd" clip-rule="evenodd" d="M63.3385 7.79207C63.7021 7.76687 64.0621 7.79259 64.4185 7.86921C64.6038 8.00847 64.7325 8.18849 64.8043 8.40925C65.024 9.53451 65.1269 10.666 65.1129 11.8038C64.4718 12.4525 63.906 12.4011 63.4156 11.6495C63.251 10.7286 63.1224 9.80285 63.0299 8.87214C63.0019 8.46122 63.1047 8.10118 63.3385 7.79207Z" fill="#68755B"></path>
<path opacity="0.863" fill-rule="evenodd" clip-rule="evenodd" d="M69.2014 9.18082C70.1847 9.16041 70.5705 9.6233 70.3586 10.5695C69.7601 11.6899 69.0658 12.7443 68.2756 13.7326C67.3054 13.9452 66.8683 13.5595 66.9641 12.5754C67.6006 11.3488 68.3463 10.2172 69.2014 9.18082Z" fill="#68755B"></path>
<path opacity="0.876" fill-rule="evenodd" clip-rule="evenodd" d="M74.2933 13.964C75.6296 13.8385 76.0411 14.3786 75.5277 15.5842C74.0241 16.1913 72.4811 16.6028 70.8988 16.8185C70.3588 16.355 70.3074 15.8408 70.7445 15.2756C71.9487 14.849 73.1315 14.4119 74.2933 13.964Z" fill="#68755B"></path>
<path opacity="0.928" fill-rule="evenodd" clip-rule="evenodd" d="M45.4395 15.0442C46.6831 14.9845 47.686 15.4474 48.4482 16.4328C49.6177 18.0002 50.7491 19.5945 51.8428 21.2161C52.038 21.5088 52.295 21.7144 52.6143 21.8332C56.3978 20.8872 60.2037 20.0644 64.0322 19.3645C66.4093 19.477 67.8494 20.7113 68.3525 23.0676C70.3968 32.7362 72.6597 42.354 75.1416 51.9211C76.0731 55.0537 74.9674 56.9824 71.8242 57.7073C53.0409 62.0399 34.2681 66.4116 15.5059 70.8225C14.0192 71.224 12.5791 71.1212 11.1855 70.5139C10.4279 69.8389 9.99073 68.9902 9.87402 67.968C7.93869 58.4266 5.88139 48.9116 3.70215 39.4231C3.43742 38.1433 3.20598 36.8576 3.00781 35.5657C3.1337 34.2594 3.75089 33.2565 4.85938 32.5569C6.1833 32.0708 7.52055 31.6337 8.87109 31.2453C8.92252 31.1682 8.97396 31.0911 9.02539 31.0139C8.73999 29.9756 8.66284 28.9212 8.79395 27.8508C9.04229 27.751 9.27373 27.6225 9.48828 27.4651C12.5744 26.7192 15.6603 25.9735 18.7461 25.2278C19.1183 25.2133 19.4011 25.3676 19.5947 25.6907C19.9033 26.8221 20.2119 27.9537 20.5205 29.0852C20.6071 29.1657 20.71 29.2171 20.8291 29.2395C23.8862 28.5074 26.9464 27.7874 30.0098 27.0793C30.1867 27.0303 30.3154 26.9275 30.3955 26.7707C31.0866 24.1829 31.961 21.6626 33.0186 19.2102C33.678 18.2505 34.5782 17.659 35.7188 17.4358C39.005 16.7416 42.2452 15.9443 45.4395 15.0442ZM45.5938 16.8957C46.0574 16.8576 46.4432 17.0119 46.751 17.3586C47.9408 19.0439 49.1494 20.7154 50.377 22.3733C44.8303 23.6828 39.2756 24.9429 33.7129 26.1536C34.1954 23.9406 34.7612 21.7547 35.4102 19.5959C38.8186 18.6927 42.2131 17.7925 45.5938 16.8957ZM63.0293 21.2161C64.3908 20.8982 65.4451 21.3097 66.1924 22.4504C68.4749 32.6348 70.8665 42.7926 73.3672 52.9241C73.3755 53.6763 73.0669 54.2421 72.4414 54.6213C58.0978 57.8347 43.7482 60.972 29.3926 64.0334C26.816 52.9765 24.3472 41.8929 21.9863 30.7825C35.7163 27.7285 49.3972 24.5396 63.0293 21.2161ZM17.9746 27.2336C18.2573 27.9787 18.5143 28.7502 18.7461 29.5481C16.3701 30.2258 13.9784 30.8429 11.5713 31.3996C11.4691 30.5796 11.2891 29.7823 11.0312 29.008C13.3774 28.4628 15.6919 27.8712 17.9746 27.2336ZM44.8223 30.7825C51.2259 30.5101 55.6491 33.3132 58.0918 39.1916C59.7327 45.4706 57.8812 50.4081 52.5371 54.0041C46.4669 56.9143 41.1437 55.9114 36.5674 50.9953C33.092 46.0224 32.9892 40.9821 36.2588 35.8743C38.4459 33.0452 41.3004 31.348 44.8223 30.7825ZM19.9805 31.2453C20.4477 32.8832 20.8592 34.5547 21.2148 36.26C21.1149 37.5919 20.6006 38.7233 19.6719 39.6545C15.8711 40.9841 11.9879 41.987 8.02246 42.6633C7.36651 40.3351 6.8779 37.9693 6.55664 35.5657C6.54405 35.0631 6.69835 34.6258 7.01953 34.2541C11.3701 33.3176 15.6904 32.3146 19.9805 31.2453ZM45.2852 35.72C49.8306 35.5075 52.6337 37.6163 53.6943 42.0461C54.002 46.6528 51.919 49.5073 47.4453 50.6096C44.2315 50.9696 41.7369 49.8124 39.9619 47.1379C37.911 43.0413 38.7083 39.6212 42.3535 36.8772C43.2953 36.35 44.2725 35.9642 45.2852 35.72ZM21.832 40.0403C22.0093 40.0852 22.1122 40.2137 22.1406 40.426C23.9115 48.432 25.7117 56.4297 27.541 64.4192C27.5088 64.5096 27.4572 64.5867 27.3867 64.6506C23.1996 65.5816 19.0335 66.5846 14.8887 67.6594C13.9361 67.5553 13.3447 67.0408 13.1143 66.1164C11.5522 58.8714 9.93212 51.6451 8.25391 44.4377C11.9097 43.858 15.5099 43.0352 19.0547 41.969C20.2344 41.6644 21.1602 41.0214 21.832 40.0403Z" fill="#68755B"></path>
<path opacity="0.883" fill-rule="evenodd" clip-rule="evenodd" d="M43.1268 19.6729C44.2346 19.8822 44.4917 20.4737 43.8983 21.4473C42.0371 21.9961 40.16 22.4848 38.2664 22.9131C37.4914 22.7523 37.2342 22.2894 37.4949 21.5244C37.5721 21.3443 37.7006 21.2158 37.8807 21.1387C39.6611 20.6941 41.4099 20.2055 43.1268 19.6729Z" fill="#68755B"></path>
<path opacity="0.901" fill-rule="evenodd" clip-rule="evenodd" d="M44.8231 28.9308C51.6646 28.685 56.5763 31.6166 59.5584 37.7257C61.7584 44.0613 60.4469 49.5388 55.6239 54.1583C50.496 57.993 45.0442 58.5073 39.2684 55.7013C33.2706 51.801 31.0333 46.3234 32.5565 39.2687C34.5637 33.3251 38.6526 29.8791 44.8231 28.9308ZM44.8231 32.7882C41.3013 33.3537 38.4468 33.0451 36.2596 35.8741C32.9901 40.982 33.0928 46.0222 36.5682 50.9952C41.1445 55.9113 46.4677 56.9142 52.5379 54.004C57.882 50.408 59.7336 45.4705 58.0926 39.1915C55.6499 33.3131 51.2267 32.5159 44.8231 32.7882Z" fill="#68755B"></path>
<path opacity="0.9" fill-rule="evenodd" clip-rule="evenodd" d="M44.9766 33.8684C50.6772 33.5781 54.2003 36.2012 55.5459 41.7375C55.9526 45.8864 54.4353 49.101 50.9941 51.3811C46.4569 53.508 42.4709 52.7622 39.0361 49.1438C36.2588 45.1834 36.2588 41.2232 39.0361 37.2629C40.6772 35.5047 42.6573 34.3732 44.9766 33.8684ZM45.2852 35.7199C44.2725 35.9642 43.2953 36.3499 42.3535 36.8772C38.7083 39.6212 37.911 43.0413 39.9619 47.1379C41.7369 49.8123 44.2315 50.9696 47.4453 50.6096C51.919 49.5073 54.002 46.6528 53.6943 42.0461C52.6337 37.6162 49.8306 35.5075 45.2852 35.7199Z" fill="#68755B"></path>
<path opacity="0.894" fill-rule="evenodd" clip-rule="evenodd" d="M15.0433 35.1026C16.7111 35.0501 17.3541 35.8216 16.9721 37.4171C15.971 38.4809 15.0453 38.4296 14.1947 37.2628C13.8899 36.2871 14.1728 35.567 15.0433 35.1026Z" fill="#68755B"></path>
<path opacity="0.915" fill-rule="evenodd" clip-rule="evenodd" d="M10.2617 35.4111C12.4525 35.5164 13.1983 36.5964 12.499 38.6514C11.3675 39.8857 10.236 39.8857 9.10449 38.6514C8.464 37.2041 8.84975 36.124 10.2617 35.4111Z" fill="#68755B"></path>
<path opacity="0.878" fill-rule="evenodd" clip-rule="evenodd" d="M42.5094 40.1945C43.209 40.1317 43.6205 40.4403 43.7438 41.1203C43.0905 42.6646 43.1419 44.1818 43.8981 45.672C43.6781 46.6435 43.138 46.8749 42.278 46.3664C41.272 44.5157 41.169 42.6126 41.9694 40.6574C42.146 40.4821 42.3261 40.3278 42.5094 40.1945Z" fill="#68755B"></path>
<path opacity="0.908" fill-rule="evenodd" clip-rule="evenodd" d="M19.2106 44.3604C19.8437 44.2476 20.3837 44.4019 20.8307 44.8233C21.2461 46.0818 21.5289 47.3675 21.6794 48.6807C21.5825 48.952 21.4282 49.1834 21.2165 49.3751C18.2976 50.3365 15.3145 50.9537 12.2672 51.2266C12.1901 51.1495 12.113 51.0723 12.0358 50.9952C11.7329 49.7497 11.5015 48.4897 11.3415 47.2149C11.3254 46.884 11.4283 46.601 11.6501 46.3663C14.183 45.6757 16.7031 45.0071 19.2106 44.3604ZM18.902 46.3663C17.0793 46.8735 15.2277 47.3364 13.3473 47.755C13.4323 48.2652 13.4837 48.7795 13.5016 49.2979C15.5351 48.9568 17.541 48.4939 19.5192 47.9093C19.5706 47.8321 19.6221 47.755 19.6735 47.6778C19.5768 47.3484 19.4996 47.014 19.4421 46.6749C19.3325 46.4476 19.1526 46.3447 18.902 46.3663Z" fill="#68755B"></path>
</svg>
