<svg width="79" height="79" viewBox="0 0 79 79" fill="none" xmlns="http://www.w3.org/2000/svg">
<path opacity="0.909" fill-rule="evenodd" clip-rule="evenodd" d="M7.79297 10.4149C10.3651 10.3892 12.9367 10.4149 15.5078 10.4921C17.4401 10.932 18.7516 12.0892 19.4424 13.9637C20.0159 16.5635 20.453 19.1865 20.7539 21.8329C29.9353 22.387 39.0902 23.21 48.2188 24.3016C48.7844 19.0304 51.5617 15.5073 56.5508 13.7323C61.3895 12.2672 65.8641 12.9873 69.9746 15.8924C74.2317 19.9472 75.2346 24.7047 72.9834 30.1649C70.6622 34.6178 66.9846 36.9836 61.9512 37.2626C62.2021 41.5162 61.9192 45.7338 61.1025 49.9149C60.8297 51.1548 60.084 51.9519 58.8652 52.3065C57.6015 52.6413 56.3158 52.847 55.0078 52.9237C45.4068 53.91 35.7891 54.2186 26.1543 53.8495C26.8877 54.5505 27.7621 54.9618 28.7773 55.0839C38.966 55.3605 49.1496 55.7719 59.3281 56.3182C60.1192 56.3457 60.8907 56.4744 61.6426 56.704C60.7402 56.9562 59.8145 57.0848 58.8652 57.0897C48.6796 57.3783 38.496 57.3783 28.3145 57.0897C25.6531 56.589 23.9816 55.0203 23.2998 52.3837C21.4668 40.5297 19.8209 28.6488 18.3623 16.7411C18.2278 15.3604 17.8162 14.0746 17.1279 12.8837C16.8289 12.4816 16.4432 12.1987 15.9707 12.035C12.3636 11.8228 8.76331 11.5142 5.16992 11.1092C4.99649 11.0708 4.8422 10.9936 4.70703 10.8778C4.8099 10.8264 4.91276 10.7749 5.01562 10.7235C5.96494 10.6331 6.89072 10.5302 7.79297 10.4149ZM60.0996 15.0438C64.3292 14.8327 67.8009 16.3243 70.5146 19.5184C71.5578 21.2594 72.2008 23.1365 72.4434 25.1503C71.9703 29.7034 69.7074 32.9952 65.6543 35.0253C60.7713 37.0945 56.631 36.1431 53.2334 32.1708C49.7157 27.734 49.5614 23.208 52.7705 18.5926C54.8085 16.5578 57.2514 15.3749 60.0996 15.0438ZM21.0625 22.4501C30.0841 23.9378 39.1362 25.2236 48.2188 26.3075C48.3957 26.3566 48.5244 26.4593 48.6045 26.6161C49.5905 31.3294 52.3422 34.4667 56.8594 36.0282C56.7159 39.1971 56.3301 42.3346 55.7021 45.4403C55.5559 45.7597 55.3244 45.9911 55.0078 46.1346C44.9637 47.388 34.8829 48.2366 24.7656 48.6805C23.632 39.9228 22.3976 31.1793 21.0625 22.4501ZM59.1738 36.954C59.7642 37.1854 60.3814 37.2882 61.0254 37.2626C61.0504 37.5753 61.0246 37.8839 60.9482 38.1883C60.3486 37.852 59.7057 37.6461 59.0195 37.5712C59.0092 37.346 59.0606 37.1404 59.1738 36.954ZM58.8652 39.7313C59.5171 39.8943 60.1599 39.8943 60.7939 39.7313C60.885 40.3172 60.8078 40.883 60.5625 41.4286C59.9885 41.0965 59.3713 40.8909 58.7109 40.8114C58.8458 40.4647 58.8973 40.1047 58.8652 39.7313ZM58.4023 43.1258C58.9887 43.3794 59.6059 43.4823 60.2539 43.4344C60.1592 44.4147 60.0306 45.3918 59.8682 46.3661C59.221 46.0211 58.5781 45.6611 57.9395 45.286C58.2403 44.5966 58.3946 43.8767 58.4023 43.1258ZM57.0137 47.1376C57.7312 47.7011 58.5542 48.0097 59.4824 48.0633C59.4077 49.8873 58.482 50.6074 56.7051 50.2235C56.5185 49.3945 56.1072 48.7001 55.4707 48.1405C56.1218 47.9962 56.6361 47.662 57.0137 47.1376ZM47.9102 48.6805C48.0915 48.6467 48.2458 48.6981 48.373 48.8348C48.5182 49.6062 48.8268 50.3005 49.2988 50.9178C48.3214 51.0661 47.344 51.1946 46.3672 51.3036C46.1714 50.5619 45.9142 49.8418 45.5957 49.1434C46.3855 48.9756 47.157 48.8213 47.9102 48.6805ZM51.6133 48.6805C52.2326 48.6549 52.8498 48.6807 53.4648 48.7577C53.7859 49.4002 54.1459 50.0174 54.5449 50.6092C53.4721 50.7888 52.392 50.9174 51.3047 50.995C51.2186 50.2909 51.0129 49.6224 50.6875 48.9891C51.0163 48.8859 51.3249 48.7831 51.6133 48.6805ZM40.8125 49.1434C41.7383 49.1434 42.6641 49.1434 43.5898 49.1434C43.5777 49.9293 43.7833 50.6494 44.207 51.3036C42.9989 51.6014 41.7901 51.6529 40.5811 51.4579C40.4726 50.6497 40.1382 49.9553 39.5781 49.3749C40.0202 49.3466 40.4315 49.2695 40.8125 49.1434ZM25.0742 49.452C27.1409 49.5073 29.1983 49.6359 31.2461 49.8378C31.3697 50.805 31.7812 51.6279 32.4805 52.3065C30.3228 52.568 28.1626 52.7739 26 52.9237C25.424 51.8385 25.1154 50.6813 25.0742 49.452ZM34.9492 49.452C35.875 49.452 36.8008 49.452 37.7266 49.452C37.7648 50.2476 37.9191 51.0191 38.1895 51.7665C36.7599 52.0079 35.3198 52.1107 33.8691 52.0751C33.8613 51.2212 33.707 50.3983 33.4062 49.6063C33.9528 49.6546 34.467 49.6031 34.9492 49.452Z" fill="#5B6A4D"></path>
<path opacity="0.908" fill-rule="evenodd" clip-rule="evenodd" d="M60.2528 17.9756C60.4646 17.9514 60.6705 17.9771 60.87 18.0528C61.7546 19.7134 62.2175 21.4879 62.2587 23.376C64.3213 23.4149 66.3787 23.5436 68.4305 23.7617C68.9982 23.8051 69.5125 23.9852 69.9735 24.3018C69.8999 24.4527 69.7971 24.5812 69.6649 24.6875C67.2847 25.2663 64.8674 25.4977 62.413 25.3819C62.5082 27.4338 62.1224 29.3882 61.2557 31.2451C60.6301 32.145 60.2443 32.0678 60.0985 31.0137C60.2898 29.1853 60.3412 27.3595 60.2528 25.5361C57.9538 25.6241 55.6907 25.3927 53.4637 24.8418C53.1409 24.6948 53.0896 24.4891 53.3094 24.2246C53.5543 24.0916 53.8115 23.9887 54.0809 23.916C56.0788 23.6428 58.0846 23.4627 60.0985 23.376C60.0568 21.5701 60.1084 19.7699 60.2528 17.9756Z" fill="#5B6A4D"></path>
<path opacity="0.897" fill-rule="evenodd" clip-rule="evenodd" d="M25.0739 57.4754C26.4376 57.3212 27.5948 57.7327 28.5456 58.7097C28.7013 58.945 28.7784 59.2022 28.777 59.4812C29.761 59.8748 30.4038 60.5948 30.7057 61.6414C31.492 65.7352 29.8461 68.0496 25.7682 68.5847C23.1356 68.3181 21.5927 66.878 21.1393 64.2644C20.6001 60.862 21.9116 58.5989 25.0739 57.4754ZM25.5368 59.0183C26.505 58.9331 27.4308 59.0874 28.3141 59.4812C29.3013 61.1475 29.4812 62.8961 28.8542 64.7273C27.6537 66.4868 26.1365 66.8211 24.3024 65.7302C23.1507 64.1999 22.9193 62.5284 23.6081 60.7156C24.0906 59.9503 24.7335 59.3845 25.5368 59.0183Z" fill="#5B6A4D"></path>
<path opacity="0.899" fill-rule="evenodd" clip-rule="evenodd" d="M56.2405 57.7841C58.1709 57.4671 59.7652 58.0329 61.0237 59.4814C62.5093 60.2128 63.2294 61.4214 63.1838 63.1074C63.0581 65.0327 62.1323 66.4214 60.4065 67.2734C57.7419 68.2836 55.4019 67.7949 53.386 65.8076C52.3212 63.8266 52.2698 61.8207 53.2317 59.79C54.024 58.7906 55.0269 58.122 56.2405 57.7841ZM57.4749 59.3271C58.5133 59.2555 59.5162 59.4098 60.4836 59.79C62.101 61.6925 62.0238 63.5183 60.2522 65.2675C58.7655 66.1776 57.274 66.1776 55.7776 65.2675C54.4457 63.9807 54.2143 62.5149 55.0833 60.8701C55.748 60.1241 56.5452 59.6096 57.4749 59.3271Z" fill="#5B6A4D"></path>
</svg>
