<svg width="32" height="30" viewBox="0 0 32 30" fill="none" xmlns="http://www.w3.org/2000/svg">
<g clip-path="url('#clip0_4_218')">
<path d="M5.31752 0.5C5.95376 0.5 6.50147 0.961967 6.62319 1.60049L6.70618 2.305H29.9813C31.1044 2.305 32.0007 3.44722 31.6853 4.59848L28.6978 15.4308C28.482 16.2091 27.7849 16.745 26.9938 16.745H9.45028L9.95927 19.4524H27.0048C27.7407 19.4524 28.3326 20.056 28.3326 20.8062C28.3326 21.5564 27.7407 22.16 27.0048 22.16H8.80852C8.22208 22.16 7.67436 21.6974 7.55265 21.0601L4.21878 3.2075H1.33414C0.601089 3.2075 0.00634766 2.60113 0.00634766 1.85375C0.00634766 1.10637 0.601089 0.5 1.33414 0.5H5.31752ZM7.08792 26.6725C7.08792 25.1778 8.2774 23.965 9.74351 23.965C11.2096 23.965 12.3991 25.1778 12.3991 26.6725C12.3991 28.1672 11.2096 29.38 9.74351 29.38C8.2774 29.38 7.08792 28.1672 7.08792 26.6725ZM28.3326 26.6725C28.3326 28.1672 27.1431 29.38 25.6771 29.38C24.211 29.38 23.0214 28.1672 23.0214 26.6725C23.0214 25.1778 24.211 23.965 25.6771 23.965C27.1431 23.965 28.3326 25.1778 28.3326 26.6725Z" fill="white"></path>
</g>
<defs>
<clipPath id="clip0_4_218">
<rect width="31.88" height="28.88" fill="white" transform="translate(0 0.5)"></rect>
</clipPath>
</defs>
</svg>
