<svg width="150" height="150" viewBox="0 0 150 150" fill="none" xmlns="http://www.w3.org/2000/svg">
<path d="M19.2925 75.0002H74.6903V84.2332H19.2925V75.0002ZM10.0596 51.918H56.2243V61.1507H10.0596V51.918Z" fill="#779243"></path>
<path d="M138.945 77.7977L125.096 45.4825C124.74 44.6518 124.149 43.9439 123.394 43.4466C122.64 42.9493 121.757 42.6843 120.853 42.6848H107.004V33.452C107.004 32.2275 106.517 31.0534 105.652 30.1875C104.786 29.3218 103.612 28.8354 102.387 28.8354H28.5236V38.0684H97.7706V96.0329C95.6672 97.2543 93.8261 98.8802 92.354 100.817C90.8818 102.753 89.8077 104.962 89.1933 107.316H60.1833C59.0597 102.964 56.3874 99.1711 52.6677 96.6486C48.9479 94.1261 44.4356 93.047 39.977 93.6134C35.5183 94.1795 31.4193 96.3527 28.4481 99.725C25.477 103.097 23.8379 107.437 23.8379 111.932C23.8379 116.427 25.477 120.767 28.4481 124.139C31.4193 127.511 35.5183 129.685 39.977 130.251C44.4356 130.817 48.9479 129.738 52.6677 127.215C56.3874 124.693 59.0597 120.9 60.1833 116.548H89.1933C90.1974 120.51 92.4943 124.025 95.7199 126.535C98.9456 129.045 102.916 130.408 107.004 130.408C111.091 130.408 115.062 129.045 118.287 126.535C121.513 124.025 123.81 120.51 124.814 116.548H134.702C135.927 116.548 137.101 116.062 137.967 115.196C138.833 114.331 139.319 113.156 139.319 111.932V79.6166C139.319 78.9914 139.192 78.3725 138.945 77.7977ZM42.3729 121.165C40.5468 121.165 38.7618 120.623 37.2433 119.609C35.7252 118.594 34.5418 117.152 33.8429 115.465C33.144 113.778 32.9611 111.922 33.3174 110.131C33.6736 108.34 34.5531 106.695 35.8443 105.403C37.1356 104.112 38.7806 103.233 40.5718 102.877C42.3627 102.52 44.2193 102.703 45.9063 103.402C47.5933 104.101 49.0354 105.284 50.0499 106.802C51.0645 108.321 51.6058 110.106 51.6058 111.932C51.6036 114.38 50.6299 116.727 48.899 118.458C47.1679 120.189 44.8208 121.162 42.3729 121.165ZM107.004 51.9179H117.806L127.704 75.0002H107.004V51.9179ZM107.004 121.165C105.178 121.165 103.392 120.623 101.874 119.609C100.356 118.594 99.1724 117.152 98.4736 115.465C97.7747 113.778 97.5918 111.922 97.9481 110.131C98.3043 108.34 99.1838 106.695 100.475 105.403C101.766 104.112 103.411 103.233 105.202 102.877C106.993 102.52 108.85 102.703 110.537 103.402C112.224 104.101 113.666 105.284 114.681 106.802C115.695 108.321 116.237 110.106 116.237 111.932C116.234 114.38 115.261 116.727 113.53 118.458C111.799 120.189 109.452 121.162 107.004 121.165ZM130.086 107.316H124.814C123.797 103.361 121.497 99.8561 118.274 97.3498C115.05 94.8434 111.087 93.4775 107.004 93.4661V84.2332H130.086V107.316Z" fill="#779243"></path>
</svg>
