<svg width="79" height="79" viewBox="0 0 79 79" fill="none" xmlns="http://www.w3.org/2000/svg">
<path opacity="0.913" fill-rule="evenodd" clip-rule="evenodd" d="M21.2166 3.47153C23.5493 3.18146 25.6581 3.7215 27.5428 5.09164C28.9057 6.24887 30.1658 7.50897 31.3231 8.87192C33.3987 11.6165 35.5332 14.3167 37.7264 16.9725C38.7036 17.0239 39.6809 17.0754 40.658 17.1268C41.0845 17.2089 41.4959 17.3376 41.8924 17.5125C44.355 15.2538 46.8751 13.0679 49.453 10.9549C52.2612 8.77878 55.3471 7.08152 58.7108 5.86313C61.2871 5.2763 62.83 6.27923 63.3397 8.87192C63.1406 12.4707 62.9606 16.0709 62.7996 19.6727C62.6393 21.42 62.2022 23.0915 61.4881 24.6873C63.5915 25.1746 65.7001 25.6375 67.8143 26.076C68.15 26.1012 68.4329 26.2297 68.6629 26.4618C68.8441 27.0089 68.9468 27.5747 68.9715 28.159C69.1184 30.9356 69.1699 33.7129 69.1258 36.4911C68.9908 36.91 68.708 37.1157 68.2772 37.1082C68.1565 45.6984 67.9764 54.2877 67.7371 62.8758C67.7286 64.2801 67.6257 65.6688 67.4285 67.0418C58.5273 70.5468 49.398 73.3242 40.0408 75.3739C30.6826 72.6741 21.3219 69.9739 11.9588 67.2733C11.6766 67.2312 11.4452 67.1025 11.2645 66.8875C10.9469 56.9724 10.7154 47.046 10.5701 37.1082C10.3661 37.1345 10.1861 37.0831 10.0301 36.9539C9.85217 36.4585 9.74931 35.9442 9.72151 35.411C9.59489 32.4212 9.62061 29.4381 9.79866 26.4618C12.4061 25.5593 15.0805 24.8907 17.8221 24.4559C15.9702 19.176 15.7903 13.8271 17.2821 8.40903C17.6027 7.29283 18.014 6.21275 18.5164 5.16879C19.2413 4.31354 20.1415 3.74778 21.2166 3.47153ZM34.1776 15.661C29.1782 13.0286 24.6522 9.73692 20.5994 5.78598C22.0109 5.00902 23.4512 4.9833 24.9198 5.70883C26.5582 6.57422 27.9727 7.73145 29.1629 9.18051C30.9267 11.2774 32.5982 13.4376 34.1776 15.661ZM19.5194 7.48324C24.2106 11.7353 29.3539 15.3613 34.949 18.3612C33.3541 19.596 32.7625 21.2161 33.1746 23.2215C33.3002 23.8071 33.5317 24.3471 33.869 24.8416C30.6462 25.8747 27.4315 26.929 24.2254 28.0047C22.8951 27.673 21.815 26.9529 20.9852 25.8446C19.3629 23.7048 18.4371 21.2874 18.2078 18.5926C17.8352 14.7854 18.2723 11.0823 19.5194 7.48324ZM46.6756 15.8153C49.1687 13.4361 51.8947 11.3531 54.8533 9.56625C56.326 8.72691 57.8689 8.05828 59.4823 7.56039C60.1888 7.37342 60.7546 7.57914 61.1795 8.17758C56.7251 11.4081 51.8904 13.954 46.6756 15.8153ZM61.1795 10.4149C61.3874 13.8486 61.2587 17.2945 60.7938 20.7528C60.4731 22.4348 59.9073 24.0293 59.0965 25.536C58.0373 26.7819 56.7257 27.1163 55.1619 26.5389C51.75 25.2186 48.3554 23.8557 44.9783 22.45C44.8932 21.0873 44.4303 19.8787 43.5897 18.8241C49.9351 16.9623 55.7984 14.1593 61.1795 10.4149ZM38.3436 18.7469C40.0694 18.5756 41.4838 19.1413 42.5867 20.4442C43.482 23.0569 42.6333 24.8313 40.0408 25.7674C37.2076 26.0938 35.459 24.8852 34.7947 22.1414C35.1751 20.1668 36.3579 19.0351 38.3436 18.7469ZM44.3612 24.3016C47.8984 25.6781 51.4472 27.0411 55.0076 28.3905C55.7484 28.9766 56.4428 29.6196 57.0906 30.3192C58.3582 42.323 58.7697 54.3582 58.325 66.4247C58.2901 67.1016 58.213 67.7703 58.0936 68.4305C56.8469 68.9661 55.5611 69.3776 54.2362 69.6649C54.7756 56.4242 54.4928 43.2062 53.3875 30.0106C53.2482 29.8253 53.0683 29.6966 52.8475 29.6248C49.6992 28.3096 46.5105 27.101 43.2811 25.9989C43.7062 25.4716 44.0661 24.906 44.3612 24.3016ZM18.5936 25.9989C18.7473 25.9856 18.8758 26.0371 18.9793 26.1532C19.3094 26.6838 19.6951 27.1725 20.1365 27.619C18.4911 27.4241 16.8454 27.1669 15.199 26.8475C16.3615 26.6083 17.4931 26.3254 18.5936 25.9989ZM35.1033 26.3075C35.3363 26.5136 35.5935 26.6937 35.8748 26.8475C32.9904 28.0146 30.0845 29.1204 27.1571 30.1649C26.6042 36.195 26.3728 42.2383 26.4627 48.2948C26.382 55.412 26.6906 62.5097 27.3885 69.5877C27.3371 69.6649 27.2856 69.742 27.2342 69.8192C26.0054 69.4182 24.771 69.0324 23.5311 68.662C23.4104 68.2392 23.3333 67.8019 23.2996 67.3504C22.3512 55.0021 22.3768 42.6583 23.3768 30.3192C27.2908 28.9461 31.1998 27.6088 35.1033 26.3075ZM60.5623 26.4618C61.7998 26.663 63.0342 26.8944 64.2655 27.1561C62.4227 27.6173 60.5711 27.9773 58.7108 28.2362C59.5105 27.822 60.1277 27.2305 60.5623 26.4618ZM41.1209 27.2332C43.7808 28.0771 46.4039 29.0286 48.9901 30.0877C46.0459 30.5613 43.1143 31.1013 40.1951 31.7079C37.6815 31.1382 35.1612 30.5982 32.6346 30.0877C34.4521 29.4104 36.2522 28.6903 38.035 27.9276C39.1075 27.8071 40.1362 27.5756 41.1209 27.2332ZM11.4959 28.0047C14.7827 28.5847 18.0744 29.1763 21.3709 29.7791C21.4572 29.891 21.5086 30.0195 21.5252 30.1649C21.3117 32.5773 21.1574 34.9947 21.0623 37.4168C17.8695 36.8194 14.6806 36.2022 11.4959 35.5653C11.3571 33.041 11.3571 30.5207 11.4959 28.0047ZM66.5799 28.4676C66.7856 28.4676 66.9914 28.4676 67.1971 28.4676C67.2392 30.7893 67.3421 33.1038 67.5057 35.411C64.9129 36.0581 62.3156 36.6753 59.7137 37.2625C59.3963 34.9032 59.1906 32.5374 59.0965 30.1649C61.6077 29.6076 64.1022 29.0418 66.5799 28.4676ZM28.9315 31.245C32.3937 31.8859 35.8396 32.606 39.2694 33.4051C39.5573 36.0246 39.6087 38.6477 39.4237 41.2743C35.7841 40.4435 32.1324 39.672 28.4686 38.9598C28.4569 36.3698 28.6111 33.7983 28.9315 31.245ZM50.8416 31.5536C51.1502 31.5536 51.4588 31.5536 51.7674 31.5536C51.9729 34.0692 52.1272 36.5895 52.2303 39.1141C48.646 39.8052 45.0714 40.5253 41.5067 41.2743C41.2839 38.6085 41.2067 35.9339 41.2752 33.2508C44.4888 32.7154 47.6776 32.1496 50.8416 31.5536ZM12.4217 37.5711C15.2938 38.1764 18.174 38.7422 21.0623 39.2684C20.7885 48.8913 20.9171 58.5091 21.4481 68.1219C18.6712 67.2222 15.8681 66.3992 13.0389 65.6532C12.9107 64.5768 12.8335 63.4967 12.8074 62.4129C12.6919 54.1318 12.5633 45.8513 12.4217 37.5711ZM66.2713 37.5711C66.4699 37.7827 66.5727 38.0657 66.5799 38.4198C66.3116 47.3417 66.0801 56.2653 65.8856 65.1903C65.8536 65.6413 65.6222 65.9241 65.1912 66.0389C63.562 66.6734 61.9161 67.2648 60.2537 67.8133C60.4313 58.1966 60.277 48.5787 59.7908 38.9598C61.9937 38.612 64.1539 38.1491 66.2713 37.5711ZM28.3143 40.8114C32.0807 41.5234 35.8353 42.2949 39.578 43.1258C39.6054 53.2071 39.554 63.2879 39.4237 73.368C36.1211 72.4651 32.8293 71.5137 29.5487 70.5135C29.3919 70.4334 29.2891 70.3048 29.2401 70.1278C28.3149 60.3764 28.0063 50.6041 28.3143 40.8114ZM51.6131 40.9657C51.8703 40.9657 52.1274 40.9657 52.3846 40.9657C52.6642 48.5239 52.7413 56.0844 52.616 63.6473C52.5602 65.8635 52.4315 68.0752 52.2303 70.2821C48.5597 71.3475 44.8822 72.3762 41.1981 73.368C41.3636 63.2904 41.4665 53.2097 41.5067 43.1258C44.9001 42.4525 48.2689 41.7324 51.6131 40.9657Z" fill="#68755B"></path>
</svg>
