<svg width="45" height="50" viewBox="0 0 45 50" fill="none" xmlns="http://www.w3.org/2000/svg">
<g clip-path="url('#clip0_4_558')">
<path d="M22.3315 13.7695C16.1206 13.7695 11.1108 18.7793 11.1108 24.9902C11.1108 31.2012 16.1206 36.2109 22.3315 36.2109C28.5425 36.2109 33.5522 31.2012 33.5522 24.9902C33.5522 18.7793 28.5425 13.7695 22.3315 13.7695ZM22.3315 32.2852C18.3179 32.2852 15.0366 29.0137 15.0366 24.9902C15.0366 20.9668 18.3081 17.6953 22.3315 17.6953C26.355 17.6953 29.6265 20.9668 29.6265 24.9902C29.6265 29.0137 26.3452 32.2852 22.3315 32.2852ZM36.6284 13.3105C36.6284 14.7656 35.4565 15.9277 34.0112 15.9277C32.5562 15.9277 31.394 14.7559 31.394 13.3105C31.394 11.8652 32.5659 10.6934 34.0112 10.6934C35.4565 10.6934 36.6284 11.8652 36.6284 13.3105ZM44.0601 15.9668C43.894 12.4609 43.0933 9.35547 40.5249 6.79687C37.9663 4.23828 34.8608 3.4375 31.355 3.26172C27.7417 3.05664 16.9116 3.05664 13.2983 3.26172C9.80225 3.42773 6.69678 4.22852 4.12842 6.78711C1.56006 9.3457 0.769043 12.4512 0.593262 15.957C0.388184 19.5703 0.388184 30.4004 0.593262 34.0137C0.759277 37.5195 1.56006 40.625 4.12842 43.1836C6.69678 45.7422 9.79248 46.543 13.2983 46.7188C16.9116 46.9238 27.7417 46.9238 31.355 46.7188C34.8608 46.5527 37.9663 45.752 40.5249 43.1836C43.0835 40.625 43.8843 37.5195 44.0601 34.0137C44.2651 30.4004 44.2651 19.5801 44.0601 15.9668ZM39.3921 37.8906C38.6304 39.8047 37.1558 41.2793 35.2319 42.0508C32.3511 43.1934 25.5151 42.9297 22.3315 42.9297C19.1479 42.9297 12.3022 43.1836 9.43115 42.0508C7.51709 41.2891 6.04248 39.8145 5.271 37.8906C4.12842 35.0098 4.39209 28.1738 4.39209 24.9902C4.39209 21.8066 4.13818 14.9609 5.271 12.0898C6.03272 10.1758 7.50732 8.70117 9.43115 7.92969C12.312 6.78711 19.1479 7.05078 22.3315 7.05078C25.5151 7.05078 32.3608 6.79687 35.2319 7.92969C37.146 8.69141 38.6206 10.166 39.3921 12.0898C40.5347 14.9707 40.271 21.8066 40.271 24.9902C40.271 28.1738 40.5347 35.0195 39.3921 37.8906Z" fill="white"></path>
</g>
<defs>
<clipPath id="clip0_4_558">
<rect width="43.75" height="50" fill="white" transform="translate(0.439453)"></rect>
</clipPath>
</defs>
</svg>
