<svg width="25" height="24" viewBox="0 0 25 24" fill="none" xmlns="http://www.w3.org/2000/svg">
<path d="M7.3993 10.79C8.8393 13.62 11.1593 15.93 13.9893 17.38L16.1893 15.18C16.4593 14.91 16.8593 14.82 17.2093 14.94C18.3293 15.31 19.5393 15.51 20.7793 15.51C21.3293 15.51 21.7793 15.96 21.7793 16.51V20C21.7793 20.55 21.3293 21 20.7793 21C11.3893 21 3.7793 13.39 3.7793 4C3.7793 3.45 4.2293 3 4.7793 3H8.2793C8.8293 3 9.2793 3.45 9.2793 4C9.2793 5.25 9.4793 6.45 9.8493 7.57C9.9593 7.92 9.8793 8.31 9.5993 8.59L7.3993 10.79Z" fill="white"></path>
</svg>
