<svg width="151" height="150" viewBox="0 0 151 150" fill="none" xmlns="http://www.w3.org/2000/svg">
<mask id="mask0_4_3003" style="mask-type: luminance" maskUnits="userSpaceOnUse" x="0" y="0" width="151" height="150">
<path d="M150.506 0H0.505859V150H150.506V0Z" fill="white"></path>
</mask>
<g mask="url('#mask0_4_3003')">
<path d="M111.09 75.0002C111.073 69.3973 110.472 63.8118 109.298 58.3336H124.298C123.526 56.0483 122.593 53.8207 121.507 51.6669H107.548C104.924 42.9004 100.854 34.6338 95.5065 27.2086C92.0898 25.7718 88.5274 24.71 84.8817 24.0417C92.2079 31.9137 97.7381 41.282 101.09 51.5H78.6315V23.3335H72.3816V51.5418H49.9231C53.282 41.3053 58.8267 31.9218 66.1732 24.0417C62.5432 24.699 58.9947 25.7466 55.5899 27.1668C50.2211 34.5611 46.1231 42.7991 43.4648 51.5418H29.4232C28.3174 53.7348 27.3703 56.0047 26.5898 58.3336H41.7149C40.5412 63.8118 39.9408 69.3973 39.9232 75.0002C39.9348 81.1283 40.6335 87.236 42.0066 93.2086H27.2565C28.1187 95.544 29.1491 97.8138 30.3398 100H43.7983C46.3492 107.983 50.1308 115.518 55.0065 122.333C58.4981 123.831 62.1456 124.935 65.8815 125.625C59.0812 118.208 53.8513 109.491 50.5065 100H72.4231V126.417H78.6733V100H100.507C97.1503 109.495 91.9061 118.212 85.0898 125.625C88.8433 124.911 92.5051 123.779 96.0066 122.25C100.875 115.46 104.656 107.954 107.215 100H120.548C121.734 97.8542 122.764 95.6263 123.632 93.3334H108.84C110.278 87.3267 111.033 81.1765 111.09 75.0002ZM72.3816 93.2086H48.4649C45.5314 81.7412 45.4028 69.7361 48.0899 58.2085H72.3816V93.2086ZM102.548 93.2086H78.6315V58.3336H102.923C104.12 63.8074 104.707 69.3969 104.673 75.0002C104.707 81.1333 103.994 87.2478 102.548 93.2086Z" fill="#779243"></path>
<path d="M75.5065 8.3335C62.321 8.3335 49.4319 12.2434 38.4685 19.5689C27.5053 26.8943 18.9604 37.3062 13.9146 49.488C8.86874 61.6696 7.54851 75.0741 10.1208 88.0061C12.6932 100.938 19.0426 112.817 28.3661 122.141C37.6896 131.464 49.5685 137.814 62.5005 140.386C75.4326 142.958 88.8371 141.638 101.019 136.592C113.201 131.546 123.612 123.001 130.938 112.038C138.263 101.075 142.173 88.1857 142.173 75.0002C142.173 57.3192 135.149 40.3622 122.647 27.8596C110.144 15.3573 93.1875 8.3335 75.5065 8.3335ZM75.5065 133.333C63.9694 133.333 52.6912 129.912 43.0982 123.503C33.5053 117.093 26.0286 107.982 21.6136 97.3235C17.1984 86.6645 16.0433 74.9354 18.2941 63.6198C20.5449 52.3043 26.1006 41.9102 34.2585 33.7523C42.4167 25.5942 52.8108 20.0385 64.1263 17.7877C75.4419 15.5369 87.1707 16.6921 97.8297 21.1072C108.489 25.5224 117.599 32.9991 124.009 42.5919C130.419 52.1848 133.84 63.4629 133.84 75.0002C133.84 90.4712 127.694 105.309 116.754 116.248C105.815 127.188 90.9775 133.333 75.5065 133.333Z" fill="#779243"></path>
</g>
</svg>
