<svg width="44" height="50" viewBox="0 0 44 50" fill="none" xmlns="http://www.w3.org/2000/svg">
<g clip-path="url('#clip0_4_560')">
<path d="M3.27155 6.20026C0.196289 9.27552 0.196289 14.2257 0.196289 24.125V25.875C0.196289 35.7743 0.196289 40.7245 3.27155 43.7997C6.34681 46.875 11.297 46.875 21.1963 46.875H22.9463C32.8456 46.875 37.7958 46.875 40.871 43.7997C43.9463 40.7245 43.9463 35.7743 43.9463 25.875V24.125C43.9463 14.2257 43.9463 9.27552 40.871 6.20026C37.7958 3.125 32.8456 3.125 22.9463 3.125H21.1963C11.297 3.125 6.34681 3.125 3.27155 6.20026ZM7.5791 16.4323H12.5739C12.738 24.7812 16.4202 28.3177 19.3369 29.0469V16.4323H24.04V23.6328C26.9202 23.3229 29.9463 20.0417 30.9671 16.4323H35.6702C35.2854 18.3042 34.5186 20.0765 33.4176 21.6386C32.3167 23.2006 30.9054 24.5187 29.2718 25.5104C31.0957 26.4159 32.7067 27.6982 33.9982 29.2726C35.2897 30.847 36.2324 32.6775 36.764 34.6433H31.5869C31.1099 32.9357 30.1391 31.4072 28.7964 30.2494C27.4538 29.0917 25.7991 28.3562 24.04 28.1354V34.6433H23.4749C13.5036 34.6433 7.81608 27.8073 7.5791 16.4323Z" fill="white"></path>
</g>
<defs>
<clipPath id="clip0_4_560">
<rect width="43.75" height="50" fill="white" transform="translate(0.196289)"></rect>
</clipPath>
</defs>
</svg>
